# xmcd
#
# Track frame offsets: 
#        150
#        21905
#        41240
#        62092
#        83090
#        97575
#        118167
#        136642
#        162027
#        175927
#        195335
#        212720
#
# Disc length: 3055 seconds
#
# Revision: 3
# Processed by: cddbd v1.5.2PL0 Copyright (c) Steve Scherf et al.
# Submitted via: ExactAudioCopy v0.99pb4
#
DISCID=940bed0c
DTITLE=Various Artist - Body And Soul - Romantic Interludes Disc 1
DYEAR=1999
DGENRE=Soul
TTITLE0=Shai - If I Ever Fall In Love
TTITLE1=Sergio Mendes - Never Gonna Let You Go
TTITLE2=Temptations - Hey Girl (I Like Your Style)
TTITLE3=Freddie Jackson - I Don't Want To Lose Your Love
TTITLE4=Yvonne Elliman - Hello Stranger
TTITLE5=Isaac Hayes - Walk On By
TTITLE6=Dennis Edwards - Don't Look Any Further
TTITLE7=Gap Band - Going In Circles
TTITLE8=Miracles - Do It Baby
TTITLE9=Switch - I Wanna Be Closer
TTITLE10=Brook Benton - Rainy Night In Georgia
TTITLE11=Dorothy Moore - I Believe You
EXTD=
EXTT0=
EXTT1=
EXTT2=
EXTT3=
EXTT4=
EXTT5=
EXTT6=
EXTT7=
EXTT8=
EXTT9=
EXTT10=
EXTT11=
PLAYORDER=
